<svg xmlns="http://www.w3.org/2000/svg" width="208.26999999999998" height="35" viewBox="0 0 208.26999999999998 35"><rect class="svg__rect" x="0" y="0" width="115.31" height="35" fill="#31C4F3"/><rect class="svg__rect" x="113.31" y="0" width="94.96" height="35" fill="#389AD5"/><path class="svg__text" d="M15.69 22L14.22 22L14.22 13.47L16.14 13.47L18.60 20.01L21.06 13.47L22.97 13.47L22.97 22L21.49 22L21.49 19.19L21.64 15.43L19.12 22L18.06 22L15.55 15.43L15.69 19.19L15.69 22ZM28.49 22L26.95 22L30.17 13.47L31.50 13.47L34.73 22L33.18 22L32.49 20.01L29.18 20.01L28.49 22ZM30.83 15.28L29.60 18.82L32.07 18.82L30.83 15.28ZM41.14 22L38.69 22L38.69 13.47L41.21 13.47Q42.34 13.47 43.21 13.97Q44.09 14.48 44.57 15.40Q45.05 16.33 45.05 17.52L45.05 17.52L45.05 17.95Q45.05 19.16 44.57 20.08Q44.08 21.00 43.19 21.50Q42.30 22 41.14 22L41.14 22ZM40.17 14.66L40.17 20.82L41.14 20.82Q42.30 20.82 42.93 20.09Q43.55 19.36 43.56 17.99L43.56 17.99L43.56 17.52Q43.56 16.13 42.96 15.40Q42.35 14.66 41.21 14.66L41.21 14.66L40.17 14.66ZM55.09 22L49.51 22L49.51 13.47L55.05 13.47L55.05 14.66L51.00 14.66L51.00 17.02L54.50 17.02L54.50 18.19L51.00 18.19L51.00 20.82L55.09 20.82L55.09 22ZM66.65 22L64.68 13.47L66.15 13.47L67.47 19.88L69.10 13.47L70.34 13.47L71.96 19.89L73.27 13.47L74.74 13.47L72.77 22L71.35 22L69.73 15.77L68.07 22L66.65 22ZM80.38 22L78.90 22L78.90 13.47L80.38 13.47L80.38 22ZM86.87 14.66L84.23 14.66L84.23 13.47L91.00 13.47L91.00 14.66L88.34 14.66L88.34 22L86.87 22L86.87 14.66ZM96.24 22L94.75 22L94.75 13.47L96.24 13.47L96.24 17.02L100.05 17.02L100.05 13.47L101.53 13.47L101.53 22L100.05 22L100.05 18.21L96.24 18.21L96.24 22Z" fill="#FFFFFF"/><path class="svg__text" d="M129.29 15.48L126.71 15.48L126.71 13.60L134.23 13.60L134.23 15.48L131.66 15.48L131.66 22L129.29 22L129.29 15.48ZM140.73 18.95L137.52 13.60L140.03 13.60L142.02 16.94L144.02 13.60L146.32 13.60L143.10 18.99L143.10 22L140.73 22L140.73 18.95ZM152.78 22L150.40 22L150.40 13.60L154.25 13.60Q155.38 13.60 156.22 13.98Q157.06 14.35 157.52 15.06Q157.98 15.76 157.98 16.71L157.98 16.71Q157.98 17.66 157.52 18.35Q157.06 19.05 156.22 19.42Q155.38 19.80 154.25 19.80L154.25 19.80L152.78 19.80L152.78 22ZM152.78 15.47L152.78 17.93L154.10 17.93Q154.83 17.93 155.20 17.61Q155.58 17.29 155.58 16.71L155.58 16.71Q155.58 16.12 155.20 15.80Q154.83 15.47 154.10 15.47L154.10 15.47L152.78 15.47ZM169.47 22L162.73 22L162.73 13.60L169.32 13.60L169.32 15.44L165.09 15.44L165.09 16.85L168.82 16.85L168.82 18.63L165.09 18.63L165.09 20.17L169.47 20.17L169.47 22ZM178.25 22L174.28 22L174.28 13.60L178.25 13.60Q179.63 13.60 180.70 14.12Q181.77 14.63 182.36 15.58Q182.95 16.53 182.95 17.80L182.95 17.80Q182.95 19.07 182.36 20.02Q181.77 20.97 180.70 21.48Q179.63 22 178.25 22L178.25 22ZM176.66 15.50L176.66 20.10L178.16 20.10Q179.24 20.10 179.89 19.49Q180.54 18.88 180.54 17.80L180.54 17.80Q180.54 16.72 179.89 16.11Q179.24 15.50 178.16 15.50L178.16 15.50L176.66 15.50ZM192.21 22L187.67 22L187.67 13.60L191.97 13.60Q193.58 13.60 194.42 14.19Q195.26 14.79 195.26 15.79L195.26 15.79Q195.26 16.39 194.97 16.87Q194.67 17.34 194.13 17.62L194.13 17.62Q194.85 17.87 195.26 18.41Q195.67 18.94 195.67 19.70L195.67 19.70Q195.67 20.80 194.78 21.40Q193.89 22 192.21 22L192.21 22ZM190.03 18.58L190.03 20.28L192.02 20.28Q193.27 20.28 193.27 19.43L193.27 19.43Q193.27 18.58 192.02 18.58L192.02 18.58L190.03 18.58ZM190.03 15.31L190.03 16.94L191.66 16.94Q192.86 16.94 192.86 16.12L192.86 16.12Q192.86 15.31 191.66 15.31L191.66 15.31L190.03 15.31Z" fill="#FFFFFF" x="126.31"/></svg>